<svg id="Layer_1" data-name="Layer 1" xmlns="http://www.w3.org/2000/svg" viewBox="0 0 527.05 180.1"><defs><style>.cls-1{fill:#66cdee;}.cls-2{fill:#27bce7;}.cls-3{font-size:81.85px;fill:#848484;font-family:Roboto Slab;}.cls-4{letter-spacing:-4px;}.cls-5{letter-spacing:-2px;}</style></defs><title>WorkLark-Horizontal</title><path class="cls-1" d="M178,309.73l-9.14,15L181.87,328v-3.26S185.14,314.95,178,309.73Z" transform="translate(-54.13 -231.42)"/><path class="cls-2" d="M189.36,328.56L181,304h0a2.93,2.93,0,0,0-.22-0.51,3,3,0,0,0-2.19-1.51l-34-5-19.91-41a3.05,3.05,0,0,0-1.71-1.53l-64.9-22.79a3,3,0,0,0-3.71,4.16l40.11,82.6L63.23,407.52a3,3,0,0,0,2.84,4,3.08,3.08,0,0,0,1.51-.4l39.09-22.72a3,3,0,0,0,1.48-2.93l-1.55-14.24L164,343.67a3,3,0,0,0,1.46-1.53l6.28-14.62,13.77,4.84a3,3,0,0,0,1,.17A3,3,0,0,0,189.36,328.56ZM71.61,401.81l24.63-70.13,5.7,52.5Zm34.3-36.92-4.6-42.3,53.53,18.81ZM100,315.73L63,239.7l56.83,20,36.93,76Zm62.57,18-14.7-30.25,26,3.86ZM174.13,322l3.73-8.66,3.82,11.32Z" transform="translate(-54.13 -231.42)"/><polygon class="cls-1" points="119.83 76 108.47 102.43 93.75 72.14 119.83 76"/><polygon class="cls-1" points="47.82 152.75 17.49 170.39 42.12 100.26 47.82 152.75"/><polygon class="cls-1" points="100.72 109.97 51.78 133.47 47.18 91.16 100.72 109.97"/><polygon class="cls-1" points="102.72 104.41 45.81 84.42 8.83 8.28 65.74 28.26 102.72 104.41"/><text class="cls-3" transform="translate(156.82 133.47)"><tspan class="cls-4">W</tspan><tspan class="cls-5" x="71.84" y="0">o</tspan><tspan x="115.71" y="0">r</tspan><tspan x="148.77" y="0">k</tspan><tspan x="198.53" y="0">L</tspan><tspan class="cls-5" x="245.63" y="0">ar</tspan><tspan x="320.47" y="0">k</tspan></text></svg>